<?xml version="1.0" encoding="utf-8"?>
<!-- Uploaded to: SVG Repo, www.svgrepo.com, Generator: SVG Repo Mixer Tools -->
<svg fill="#ffffff" width="800px" height="800px" viewBox="0 0 32 32" version="1.1" xmlns="http://www.w3.org/2000/svg">
<title>add</title>
<path d="M26.5 27h-3c-0.276 0-0.5-0.224-0.5-0.5s0.224-0.5 0.5-0.5h2.5v-2.5c0-0.276 0.224-0.5 0.5-0.5 0.275 0 0.5 0.224 0.5 0.5v3c0 0.276-0.225 0.5-0.5 0.5zM26.5 21c-0.276 0-0.5-0.224-0.5-0.5v-3c0-0.276 0.224-0.5 0.5-0.5 0.275 0 0.5 0.224 0.5 0.5v3c0 0.276-0.225 0.5-0.5 0.5zM26.5 15c-0.276 0-0.5-0.224-0.5-0.5v-3c0-0.276 0.224-0.5 0.5-0.5 0.275 0 0.5 0.224 0.5 0.5v3c0 0.276-0.225 0.5-0.5 0.5zM26.5 9c-0.276 0-0.5-0.224-0.5-0.5v-2.5h-2.5c-0.276 0-0.5-0.224-0.5-0.5s0.224-0.5 0.5-0.5h3c0.275 0 0.5 0.224 0.5 0.5v3c0 0.276-0.225 0.5-0.5 0.5zM20.5 27h-3c-0.276 0-0.5-0.224-0.5-0.5s0.224-0.5 0.5-0.5h3c0.275 0 0.5 0.224 0.5 0.5s-0.225 0.5-0.5 0.5zM20.5 6h-3c-0.276 0-0.5-0.224-0.5-0.5s0.224-0.5 0.5-0.5h3c0.275 0 0.5 0.224 0.5 0.5s-0.225 0.5-0.5 0.5zM19.938 15c0.552 0 1 0.447 1 1 0 0.552-0.448 1-1 1h-3v3c0 0.552-0.448 1-1 1-0.553 0-1-0.448-1-1v-3h-3c-0.552 0-1-0.448-1-1 0-0.553 0.447-1 1-1h3v-3c0-0.553 0.447-1 1-1 0.552 0 1 0.447 1 1v3h3zM14.5 6h-3c-0.276 0-0.5-0.224-0.5-0.5s0.224-0.5 0.5-0.5h3c0.275 0 0.5 0.224 0.5 0.5s-0.225 0.5-0.5 0.5zM8.5 27h-3c-0.276 0-0.5-0.224-0.5-0.5v-3c0-0.276 0.224-0.5 0.5-0.5s0.5 0.224 0.5 0.5v2.5h2.5c0.276 0 0.5 0.224 0.5 0.5s-0.224 0.5-0.5 0.5zM8.5 6h-2.5v2.5c0 0.276-0.224 0.5-0.5 0.5s-0.5-0.224-0.5-0.5v-3c0-0.276 0.224-0.5 0.5-0.5h3c0.276 0 0.5 0.224 0.5 0.5s-0.224 0.5-0.5 0.5zM5.5 11c0.276 0 0.5 0.224 0.5 0.5v3c0 0.276-0.224 0.5-0.5 0.5s-0.5-0.224-0.5-0.5v-3c0-0.276 0.224-0.5 0.5-0.5zM5.5 17c0.276 0 0.5 0.224 0.5 0.5v3c0 0.276-0.224 0.5-0.5 0.5s-0.5-0.224-0.5-0.5v-3c0-0.276 0.224-0.5 0.5-0.5zM11.5 26h3c0.275 0 0.5 0.224 0.5 0.5s-0.225 0.5-0.5 0.5h-3c-0.276 0-0.5-0.224-0.5-0.5s0.224-0.5 0.5-0.5z"></path>
</svg>