<?xml version="1.0" ?>
<!-- Uploaded to: SVG Repo, www.svgrepo.com, Generator: SVG Repo Mixer Tools -->
<svg width="800px" height="800px" viewBox="0 0 512 512" version="1.1" xml:space="preserve" xmlns="http://www.w3.org/2000/svg" xmlns:xlink="http://www.w3.org/1999/xlink">
<style type="text/css">
	.st0{fill:#333333;}
	.st1{fill:none;stroke:#333333;stroke-width:32;stroke-linecap:round;stroke-linejoin:round;stroke-miterlimit:10;}
</style>
<g id="Layer_1"/>
<g id="Layer_2">
<g>
<g>
<path class="st0" d="M160.4,356.49h-24.7V43.5c0-8.84-7.16-16-16-16s-16,7.16-16,16v312.99H78.99c-9.8,0-18.67,3.97-25.09,10.39     c-6.43,6.43-10.4,15.3-10.4,25.1c0,19.6,15.89,35.49,35.49,35.49h24.71v0v41.03c0,8.84,7.16,16,16,16s16-7.16,16-16v-41.03v0     h24.7c9.8,0,18.67-3.97,25.1-10.39c6.42-6.43,10.39-15.3,10.39-25.1C195.89,372.38,180,356.49,160.4,356.49z"/>
</g>
<g>
<path class="st0" d="M332.2,148.4c0-19.6-15.89-35.49-35.49-35.49H272V43.5c0-8.84-7.16-16-16-16s-16,7.16-16,16v69.41h-24.71     c-9.8,0-18.67,3.97-25.09,10.39c-6.43,6.43-10.4,15.3-10.4,25.1c0,19.6,15.89,35.49,35.49,35.49H240V468.5c0,8.84,7.16,16,16,16     s16-7.16,16-16V183.89h24.71c9.8,0,18.67-3.97,25.09-10.39C328.23,167.07,332.2,158.2,332.2,148.4z"/>
</g>
<g>
<path class="st0" d="M433.01,356.49H408.3V43.5c0-8.84-7.16-16-16-16s-16,7.16-16,16v312.99h-24.7c-9.8,0-18.67,3.97-25.1,10.39     c-6.42,6.43-10.39,15.3-10.39,25.1c0,19.6,15.89,35.49,35.49,35.49h24.7v0v41.03c0,8.84,7.16,16,16,16s16-7.16,16-16v-41.03v0     h24.71c9.8,0,18.67-3.97,25.09-10.39c6.43-6.43,10.4-15.3,10.4-25.1C468.5,372.38,452.61,356.49,433.01,356.49z"/>
</g>
</g>
</g>
</svg>