<?xml version="1.0" encoding="utf-8"?>

<!-- Uploaded to: SVG Repo, www.svgrepo.com, Generator: SVG Repo Mixer Tools -->
<svg fill="#000000" height="800px" width="800px" version="1.1" id="Icons" xmlns="http://www.w3.org/2000/svg" xmlns:xlink="http://www.w3.org/1999/xlink" 
	 viewBox="0 0 32 32" xml:space="preserve">
<path d="M16,21c-3.1,0-6,1.3-8.2,3.6c2.3,2.5,5.1,4.1,7.8,5.3C15.7,30,15.9,30,16,30s0.3,0,0.4-0.1c2.7-1.2,5.5-2.8,7.8-5.3
	C22,22.3,19.1,21,16,21z"/>
<path d="M29.6,5.2C29.3,5,29,4.9,28.7,5.1c-4.3,1.4-8.7,0.3-12-2.8c-0.4-0.4-1-0.4-1.4,0c-3.3,3.1-7.7,4.2-12,2.8
	C3,4.9,2.7,5,2.4,5.2C2.2,5.4,2,5.7,2,6c0,8.1,1.8,13.4,4.5,17c2.6-2.6,5.9-4,9.5-4c3.5,0,6.9,1.5,9.5,4c2.7-3.7,4.5-9,4.5-17
	C30,5.7,29.8,5.4,29.6,5.2z M16,17c-2.8,0-5-2.2-5-5s2.2-5,5-5s5,2.2,5,5S18.8,17,16,17z"/>
</svg>